{"asset":{"version":"2.0","generator":"THREE.GLTFExporter r170"},"scenes":[{"name":"banana_projectile","nodes":[1]}],"scene":0,"nodes":[{"matrix":[1,0,0,0,0,1,0,0,0,0,1,0,0,0.225,0,1],"mesh":0},{"children":[0]}],"bufferViews":[{"buffer":0,"byteOffset":0,"byteLength":1488,"target":34962,"byteStride":12},{"buffer":0,"byteOffset":1488,"byteLength":1488,"target":34962,"byteStride":12},{"buffer":0,"byteOffset":2976,"byteLength":992,"target":34962,"byteStride":8},{"buffer":0,"byteOffset":3968,"byteLength":480,"target":34963}],"buffers":[{"byteLength":4448,"uri":"data:application/octet-stream;base64,"}],"accessors":[{"bufferView":0,"componentType":5126,"count":124,"max":[0.11999999731779099,0.22499999403953552,0.11999999731779099],"min":[-0.11999999731779099,-0.22499999403953552,-0.11999999731779099],"type":"VEC3"},{"bufferView":1,"componentType":5126,"count":124,"max":[0.9960726499557495,1,0.9960726499557495],"min":[-0.9960726499557495,-1,-0.9960726499557495],"type":"VEC3"},{"bufferView":2,"componentType":5126,"count":124,"max":[1,1],"min":[0,0],"type":"VEC2"},{"bufferView":3,"componentType":5123,"count":240,"max":[123],"min":[0],"type":"SCALAR"}],"materials":[{"pbrMetallicRoughness":{"baseColorFactor":[0.8069522576650873,0.5775804404214573,0.05126945836711539,1],"metallicFactor":0.45,"roughnessFactor":0.35}}],"meshes":[{"primitives":[{"mode":4,"attributes":{"POSITION":0,"NORMAL":1,"TEXCOORD_0":2},"indices":3,"material":0}]}]}