{"asset":{"version":"2.0","generator":"THREE.GLTFExporter r170"},"scenes":[{"name":"ray_placeholder","nodes":[0]}],"scene":0,"nodes":[{"mesh":0}],"bufferViews":[{"buffer":0,"byteOffset":0,"byteLength":2652,"target":34962,"byteStride":12},{"buffer":0,"byteOffset":2652,"byteLength":2652,"target":34962,"byteStride":12},{"buffer":0,"byteOffset":5304,"byteLength":1768,"target":34962,"byteStride":8},{"buffer":0,"byteOffset":7072,"byteLength":2112,"target":34963}],"buffers":[{"byteLength":9184,"uri":"data:application/octet-stream;base64,"}],"accessors":[{"bufferView":0,"componentType":5126,"count":221,"max":[0.125,0.125,0.125],"min":[-0.125,-0.125,-0.125],"type":"VEC3"},{"bufferView":1,"componentType":5126,"count":221,"max":[1,1,1],"min":[-1,-1,-1],"type":"VEC3"},{"bufferView":2,"componentType":5126,"count":221,"max":[1.03125,1],"min":[-0.03125,0],"type":"VEC2"},{"bufferView":3,"componentType":5123,"count":1056,"max":[220],"min":[0],"type":"SCALAR"}],"materials":[{"pbrMetallicRoughness":{"baseColorFactor":[0.14702726648767014,0.14702726648767014,0.14702726648767014,1],"metallicFactor":0.2,"roughnessFactor":0.5}}],"meshes":[{"primitives":[{"mode":4,"attributes":{"POSITION":0,"NORMAL":1,"TEXCOORD_0":2},"indices":3,"material":0}]}]}